<?xml version="1.0" encoding="utf-8" standalone="yes"?>
<!DOCTYPE svg PUBLIC "-//W3C//DTD SVG 1.1//EN" "http://www.w3.org/Graphics/SVG/1.1/DTD/svg11.dtd">
<svg version="1.1" xmlns="http://www.w3.org/2000/svg" xmlns:xlink="http://www.w3.org/1999/xlink" width="10in" height="7.5in" class="slides-canvas" viewBox="0 0 720 540">
  <g text-rendering="geometricPrecision" transform="scale(1, 1)">
    <rect x="0" y="0" width="720" height="540" fill="#FFFF00" fill-opacity="0.66" />
    <path fill="#CCC1DA" d="M42.48 429.44C42.48 368.37 93.25 318.87 155.88 318.87 193.92 318.87 231.97 318.64 270.01 318.17 269.52 355.26 269.28 392.35 269.28 429.44L269.28 429.44C269.28 490.5 218.51 540 155.88 540L155.88 540C93.25 540 42.48 490.5 42.48 429.44z" />
    <path stroke-width="2" stroke="#000000" fill="none" d="M42.48 429.44C42.48 368.37 93.25 318.87 155.88 318.87 193.92 318.87 231.97 318.64 270.01 318.17 269.52 355.26 269.28 392.35 269.28 429.44L269.28 429.44C269.28 490.5 218.51 540 155.88 540L155.88 540C93.25 540 42.48 490.5 42.48 429.44z" />
    <g transform="matrix(0, 1, -1, -0, 282.47418, -44.640633)">
      <path fill="#C4BD97" d="M59.49 118.92C59.49 61.44 106.08 14.85 163.56 14.85 198.25 14.85 232.93 14.85 267.62 14.85 267.62 49.54 267.62 84.23 267.62 118.92L267.62 118.92C267.62 176.39 221.03 222.98 163.56 222.98L163.56 222.98C106.08 222.98 59.49 176.39 59.49 118.92z" />
      <path stroke-width="2" stroke="#000000" fill="none" d="M59.49 118.92C59.49 61.44 106.08 14.85 163.56 14.85 198.25 14.85 232.93 14.85 267.62 14.85 267.62 49.54 267.62 84.23 267.62 118.92L267.62 118.92C267.62 176.39 221.03 222.98 163.56 222.98L163.56 222.98C106.08 222.98 59.49 176.39 59.49 118.92z" />
    </g>
    <g transform="matrix(-0, -1, 1, 0, 157.94928, 985.5444)">
      <path fill="#E6B9B8" d="M473.31 413.8C473.31 353.22 517.38 304.11 571.75 304.11 604.56 304.11 637.37 304.11 670.19 304.11 670.19 340.67 670.19 377.23 670.19 413.8L670.19 413.8C670.19 474.38 626.11 523.49 571.75 523.49L571.75 523.49C517.38 523.49 473.31 474.38 473.31 413.8z" />
      <path stroke-width="2" stroke="#000000" fill="none" d="M473.31 413.8C473.31 353.22 517.38 304.11 571.75 304.11 604.56 304.11 637.37 304.11 670.19 304.11 670.19 340.67 670.19 377.23 670.19 413.8L670.19 413.8C670.19 474.38 626.11 523.49 571.75 523.49L571.75 523.49C517.38 523.49 473.31 474.38 473.31 413.8z" />
    </g>
    <g transform="matrix(-1, 0, 0, -1, 1150.9141, 239.49419)">
      <path fill="#EBF1DE" d="M462.06 119.75C462.06 61.82 512.83 14.85 575.46 14.85 613.26 14.85 651.06 14.85 688.86 14.85 688.86 49.82 688.86 84.78 688.86 119.75L688.86 119.75C688.86 177.68 638.09 224.64 575.46 224.64L575.46 224.64C512.83 224.64 462.06 177.68 462.06 119.75z" />
      <path stroke-width="2" stroke="#000000" fill="none" d="M462.06 119.75C462.06 61.82 512.83 14.85 575.46 14.85 613.26 14.85 651.06 14.85 688.86 14.85 688.86 49.82 688.86 84.78 688.86 119.75L688.86 119.75C688.86 177.68 638.09 224.64 575.46 224.64L575.46 224.64C512.83 224.64 462.06 177.68 462.06 119.75z" />
    </g>
    <path fill="#4F81BD" d="M110.52 133.38C110.52 96.1 140.74 65.88 178.02 65.88L178.02 65.88C215.3 65.88 245.52 96.1 245.52 133.38L245.52 133.38C245.52 170.66 215.3 200.88 178.02 200.88L178.02 200.88C140.74 200.88 110.52 170.66 110.52 133.38z" />
    <path stroke-width="2" stroke="#000000" fill="none" d="M110.52 133.38C110.52 96.1 140.74 65.88 178.02 65.88L178.02 65.88C215.3 65.88 245.52 96.1 245.52 133.38L245.52 133.38C245.52 170.66 215.3 200.88 178.02 200.88L178.02 200.88C140.74 200.88 110.52 170.66 110.52 133.38z" />
    <g transform="matrix(1, 0, 0, 1, 137.4939, 89.25326)"><text font-family="Arial Narrow" font-style="normal" font-weight="bold" font-stretch="normal" font-size="13.5pt" fill="#000000" x="4.4050446" y="61.715553"><tspan x="17.905045" y="40.115555">Spyrix</tspan><tspan xml:space="preserve" x="63.155045" y="40.115555"> </tspan><tspan x="4.4050446" y="61.715553">Keylogger</tspan><tspan xml:space="preserve" x="76.655045" y="61.715553"> </tspan></text></g>
    <path fill="#4F81BD" d="M484.74 402.68C484.74 363.85 514.96 332.37 552.24 332.37L552.24 332.37C589.52 332.37 619.74 363.85 619.74 402.68L619.74 402.68C619.74 441.51 589.52 473 552.24 473L552.24 473C514.96 473 484.74 441.51 484.74 402.68z" />
    <path stroke-width="2" stroke="#000000" fill="none" d="M484.74 402.68C484.74 363.85 514.96 332.37 552.24 332.37L552.24 332.37C589.52 332.37 619.74 363.85 619.74 402.68L619.74 402.68C619.74 441.51 589.52 473 552.24 473L552.24 473C514.96 473 484.74 441.51 484.74 402.68z" />
    <g transform="matrix(1, 0, 0, 1, 511.7087, 356.56335)"><text font-family="Arial Narrow" font-style="normal" font-weight="bold" font-stretch="normal" font-size="13.5pt" fill="#000000" x="4.4050446" y="63.704308"><tspan x="9.655045" y="42.10431">Revealer</tspan><tspan xml:space="preserve" x="71.405045" y="42.10431"> </tspan><tspan x="4.4050446" y="63.704308">Keylogger</tspan></text></g>
    <path fill="#4F81BD" d="M99.18 425.41C99.18 389.68 130.66 360.72 169.5 360.72L169.5 360.72C208.33 360.72 239.81 389.68 239.81 425.41L239.81 425.41C239.81 461.13 208.33 490.09 169.5 490.09L169.5 490.09C130.66 490.09 99.18 461.13 99.18 425.41z" />
    <path stroke-width="2" stroke="#000000" fill="none" d="M99.18 425.41C99.18 389.68 130.66 360.72 169.5 360.72L169.5 360.72C208.33 360.72 239.81 389.68 239.81 425.41L239.81 425.41C239.81 461.13 208.33 490.09 169.5 490.09L169.5 490.09C130.66 490.09 99.18 461.13 99.18 425.41z" />
    <g transform="matrix(1, 0, 0, 1, 126.97781, 383.2654)"><text font-family="Arial Narrow" font-style="normal" font-weight="bold" font-stretch="normal" font-size="13.5pt" fill="#000000" x="6.393799" y="59.7268"><tspan x="16.268799" y="38.1268">REFOG</tspan><tspan xml:space="preserve" x="68.7688" y="38.1268"> </tspan><tspan x="6.393799" y="59.7268">Keylogger</tspan></text></g>
    <path fill="#4F81BD" d="M496.08 133.38C496.08 96.1 526.3 65.88 563.58 65.88L563.58 65.88C600.86 65.88 631.08 96.1 631.08 133.38L631.08 133.38C631.08 170.66 600.86 200.88 563.58 200.88L563.58 200.88C526.3 200.88 496.08 170.66 496.08 133.38z" />
    <path stroke-width="2" stroke="#000000" fill="none" d="M496.08 133.38C496.08 96.1 526.3 65.88 563.58 65.88L563.58 65.88C600.86 65.88 631.08 96.1 631.08 133.38L631.08 133.38C631.08 170.66 600.86 200.88 563.58 200.88L563.58 200.88C526.3 200.88 496.08 170.66 496.08 133.38z" />
    <g transform="matrix(1, 0, 0, 1, 523.0486, 89.25326)"><text font-family="Arial Narrow" font-style="normal" font-weight="bold" font-stretch="normal" font-size="13.5pt" fill="#000000" x="4.4050446" y="61.715553"><tspan x="17.967545" y="40.115555">Actual</tspan><tspan xml:space="preserve" x="63.092545" y="40.115555"> </tspan><tspan x="4.4050446" y="61.715553">Keylogger</tspan></text></g>
    <path fill="#C3D69B" d="M274.95 220.86C274.95 207.29 285.95 196.29 299.52 196.29L431.82 196.29 431.82 196.29C445.39 196.29 456.39 207.29 456.39 220.86L456.39 319.14 456.39 319.14C456.39 332.71 445.39 343.71 431.82 343.71L299.52 343.71 299.52 343.71C285.95 343.71 274.95 332.71 274.95 319.14z" />
    <path stroke-width="2" stroke="#000000" fill="none" d="M274.95 220.86C274.95 207.29 285.95 196.29 299.52 196.29L431.82 196.29 431.82 196.29C445.39 196.29 456.39 207.29 456.39 220.86L456.39 319.14 456.39 319.14C456.39 332.71 445.39 343.71 431.82 343.71L299.52 343.71 299.52 343.71C285.95 343.71 274.95 332.71 274.95 319.14z" />
    <g transform="matrix(1, 0, 0, 1, 289.34753, 207.08737)"><text font-family="Calibri" font-style="normal" font-weight="normal" font-stretch="normal" font-size="13.5pt" fill="#000000" x="40.345825" y="79.76062"><tspan x="32.359985" y="58.160625" xml:space="preserve">Examples of</tspan><tspan xml:space="preserve" x="120.28479" y="58.160625">  </tspan><tspan x="40.345825" y="79.76062">Keylogger</tspan></text></g>
  </g>
</svg>