<?xml version="1.0" encoding="utf-8" standalone="yes"?>
<!DOCTYPE svg PUBLIC "-//W3C//DTD SVG 1.1//EN" "http://www.w3.org/Graphics/SVG/1.1/DTD/svg11.dtd">
<svg version="1.1" xmlns="http://www.w3.org/2000/svg" xmlns:xlink="http://www.w3.org/1999/xlink" width="10in" height="7.5in" class="slides-canvas" viewBox="0 0 720 540">
  <g text-rendering="geometricPrecision" transform="scale(1, 1)">
    <rect x="0" y="0" width="720" height="540" fill="#002060" fill-opacity="0.74" />
    <path fill="#C3D69B" d="M0 0L101.25 0 101.25 540 0 540z" />
    <path stroke-width="2" stroke="#8C3836" fill="none" d="M0 0L101.25 0 101.25 540 0 540z" />
    <path fill="#254061" d="M138.87 60.21L681.35 60.21 681.35 494.01 138.87 494.01z" />
    <g transform="matrix(1, 0, 0, 1, 146.07309, 63.812927)">
      <path fill="#FFC000" d="M0 31.87L278.72 31.87 278.72 34.43 0 34.43z" /><text font-family="Calibri" font-style="italic" font-weight="bold" font-stretch="normal" font-size="24pt" fill="#FFC000" x="0" y="416.06396"><tspan x="0" y="29.952">System requirements</tspan><tspan x="0" y="99.26401" font-style="normal" font-size="18pt" fill="#FFFFFF">Windows 2000, Windows XP (32-bit and x64),</tspan><tspan xml:space="preserve" x="452.97656" y="99.26401" font-style="normal" font-size="18pt"> </tspan><tspan x="0" y="128.06401" font-style="normal" font-size="18pt" fill="#FFFFFF">Windows Server 2003/2008, Windows Vista (32-bit</tspan><tspan xml:space="preserve" x="507.21094" y="128.06401" font-style="normal" font-size="18pt"> </tspan><tspan x="0" y="156.86401" font-style="normal" font-size="18pt" fill="#FFFFFF">and x64), Windows 7, Windows 8 (32-bit and x64);</tspan><tspan xml:space="preserve" x="500.47656" y="156.86401" font-style="normal" font-size="18pt"> </tspan><tspan x="0" y="185.66402" font-style="normal" font-size="18pt" fill="#FFFFFF">Windows 10 ,</tspan><tspan x="0" y="214.46402" font-style="normal" font-size="18pt" fill="#FFFFFF">Windows 2000 or later ,</tspan><tspan x="0" y="243.26402" font-style="normal" font-size="18pt" fill="#FFFFFF" xml:space="preserve">Internet Explorer 5.0 or later ,monitor : 15” colour</tspan><tspan xml:space="preserve" x="496.5586" y="243.26402" font-style="normal" font-size="18pt">  </tspan><tspan x="0" y="272.06403" font-style="normal" font-size="18pt" fill="#FFFFFF">,HDD 40GB</tspan><tspan x="0" y="300.864" font-style="normal" font-size="18pt" fill="#FFFFFF">Basic input devices required: keyboard</tspan><tspan x="0" y="329.664" font-style="normal" font-size="18pt" fill="#FFFFFF">Basic output devices required: mobile devices</tspan><tspan x="0" y="358.464" font-style="normal" font-size="18pt" fill="#FFFFFF">S/W requirement: PyCharm, Python 3.8.0</tspan><tspan x="0" y="387.26398" font-style="normal" font-size="18pt" fill="#FFFFFF" xml:space="preserve">Technologies used: Advanced programming</tspan><tspan xml:space="preserve" x="431.0039" y="387.26398" font-style="normal" font-size="18pt">          </tspan><tspan x="0" y="416.06396" font-style="normal" font-size="18pt" fill="#FFFFFF">using Python</tspan></text></g>
  </g>
</svg>