<?xml version="1.0" encoding="utf-8" standalone="yes"?>
<!DOCTYPE svg PUBLIC "-//W3C//DTD SVG 1.1//EN" "http://www.w3.org/Graphics/SVG/1.1/DTD/svg11.dtd">
<svg version="1.1" xmlns="http://www.w3.org/2000/svg" xmlns:xlink="http://www.w3.org/1999/xlink" width="10in" height="7.5in" class="slides-canvas" viewBox="0 0 720 540">
  <g text-rendering="geometricPrecision" transform="scale(1, 1)">
    <rect x="0" y="0" width="720" height="540" fill="#002060" fill-opacity="0.74" />
    <path fill="#C0504D" d="M0 0L101.25 0 101.25 540 0 540z" />
    <path stroke-width="2" stroke="#8C3836" fill="none" d="M0 0L101.25 0 101.25 540 0 540z" />
    <g transform="matrix(1, 0, 0, 1, 123.39337, 24.123465)"><text font-family="Calibri" font-style="normal" font-weight="bold" font-stretch="normal" font-size="27pt" fill="#0D0D0D" x="0" y="33.696"><tspan x="0" y="33.696">CONTENTS…..</tspan></text></g>
    <path fill="#FFFF66" d="M104.85 269.06C104.85 266.45 106.97 264.33 109.58 264.33L440.32 264.33 440.32 264.33C442.93 264.33 445.05 266.45 445.05 269.06L445.05 287.95 445.05 287.95C445.05 290.56 442.93 292.68 440.32 292.68L109.58 292.68 109.58 292.68C106.97 292.68 104.85 290.56 104.85 287.95z" />
    <path stroke-width="2" stroke="#385D8A" fill="none" d="M104.85 269.06C104.85 266.45 106.97 264.33 109.58 264.33L440.32 264.33 440.32 264.33C442.93 264.33 445.05 266.45 445.05 269.06L445.05 287.95 445.05 287.95C445.05 290.56 442.93 292.68 440.32 292.68L109.58 292.68 109.58 292.68C106.97 292.68 104.85 290.56 104.85 287.95z" />
    <g transform="matrix(1, 0, 0, 1, 113.43744, 269.314)"><text font-family="Calibri" font-style="normal" font-weight="bold" font-stretch="normal" font-size="13.5pt" fill="#000000" x="109.20122" y="15.238889"><tspan x="109.20122" y="15.238889">Modules used</tspan></text></g>
    <path fill="#FFFF66" d="M104.85 303.07C104.85 300.47 106.97 298.35 109.58 298.35L440.32 298.35 440.32 298.35C442.93 298.35 445.05 300.47 445.05 303.07L445.05 321.97 445.05 321.97C445.05 324.58 442.93 326.7 440.32 326.7L109.58 326.7 109.58 326.7C106.97 326.7 104.85 324.58 104.85 321.97z" />
    <path stroke-width="2" stroke="#385D8A" fill="none" d="M104.85 303.07C104.85 300.47 106.97 298.35 109.58 298.35L440.32 298.35 440.32 298.35C442.93 298.35 445.05 300.47 445.05 303.07L445.05 321.97 445.05 321.97C445.05 324.58 442.93 326.7 440.32 326.7L109.58 326.7 109.58 326.7C106.97 326.7 104.85 324.58 104.85 321.97z" />
    <g transform="matrix(1, 0, 0, 1, 113.43744, 303.33353)"><text font-family="Calibri" font-style="normal" font-weight="bold" font-stretch="normal" font-size="13.5pt" fill="#000000" x="76.80766" y="15.238889"><tspan x="76.80766" y="15.238889">Keylogger Architecture</tspan></text></g>
    <path fill="#FFFF66" d="M104.85 337.09C104.85 334.48 106.97 332.37 109.58 332.37L440.32 332.37 440.32 332.37C442.93 332.37 445.05 334.48 445.05 337.09L445.05 355.99 445.05 355.99C445.05 358.6 442.93 360.72 440.32 360.72L109.58 360.72 109.58 360.72C106.97 360.72 104.85 358.6 104.85 355.99z" />
    <path stroke-width="2" stroke="#385D8A" fill="none" d="M104.85 337.09C104.85 334.48 106.97 332.37 109.58 332.37L440.32 332.37 440.32 332.37C442.93 332.37 445.05 334.48 445.05 337.09L445.05 355.99 445.05 355.99C445.05 358.6 442.93 360.72 440.32 360.72L109.58 360.72 109.58 360.72C106.97 360.72 104.85 358.6 104.85 355.99z" />
    <g transform="matrix(1, 0, 0, 1, 113.43744, 337.35306)"><text font-family="Calibri" font-style="normal" font-weight="bold" font-stretch="normal" font-size="13.5pt" fill="#000000" x="111.258835" y="15.238889"><tspan x="111.258835" y="15.238889">Programming</tspan></text></g>
    <path fill="#FFFF66" d="M104.85 371.11C104.85 368.5 106.97 366.39 109.58 366.39L440.32 366.39 440.32 366.39C442.93 366.39 445.05 368.5 445.05 371.11L445.05 390.01 445.05 390.01C445.05 392.62 442.93 394.74 440.32 394.74L109.58 394.74 109.58 394.74C106.97 394.74 104.85 392.62 104.85 390.01z" />
    <path stroke-width="2" stroke="#385D8A" fill="none" d="M104.85 371.11C104.85 368.5 106.97 366.39 109.58 366.39L440.32 366.39 440.32 366.39C442.93 366.39 445.05 368.5 445.05 371.11L445.05 390.01 445.05 390.01C445.05 392.62 442.93 394.74 440.32 394.74L109.58 394.74 109.58 394.74C106.97 394.74 104.85 392.62 104.85 390.01z" />
    <g transform="matrix(1, 0, 0, 1, 113.43744, 371.3726)"><text font-family="Calibri" font-style="normal" font-weight="bold" font-stretch="normal" font-size="13.5pt" fill="#000000" x="108.89897" y="15.238889"><tspan x="108.89897" y="15.238889">Block diagram</tspan></text></g>
    <path fill="#FFFF66" d="M104.85 405.13C104.85 402.52 106.97 400.41 109.58 400.41L440.32 400.41 440.32 400.41C442.93 400.41 445.05 402.52 445.05 405.13L445.05 424.03 445.05 424.03C445.05 426.64 442.93 428.76 440.32 428.76L109.58 428.76 109.58 428.76C106.97 428.76 104.85 426.64 104.85 424.03z" />
    <path stroke-width="2" stroke="#385D8A" fill="none" d="M104.85 405.13C104.85 402.52 106.97 400.41 109.58 400.41L440.32 400.41 440.32 400.41C442.93 400.41 445.05 402.52 445.05 405.13L445.05 424.03 445.05 424.03C445.05 426.64 442.93 428.76 440.32 428.76L109.58 428.76 109.58 428.76C106.97 428.76 104.85 426.64 104.85 424.03z" />
    <g transform="matrix(1, 0, 0, 1, 113.43744, 405.39212)"><text font-family="Calibri" font-style="normal" font-weight="bold" font-stretch="normal" font-size="13.5pt" fill="#000000" x="84.35063" y="15.238889"><tspan x="84.35063" y="15.238889">System Requirement</tspan></text></g>
    <path fill="#FFFF66" d="M104.85 439.15C104.85 436.54 106.97 434.43 109.58 434.43L440.32 434.43 440.32 434.43C442.93 434.43 445.05 436.54 445.05 439.15L445.05 458.05 445.05 458.05C445.05 460.66 442.93 462.78 440.32 462.78L109.58 462.78 109.58 462.78C106.97 462.78 104.85 460.66 104.85 458.05z" />
    <path stroke-width="2" stroke="#385D8A" fill="none" d="M104.85 439.15C104.85 436.54 106.97 434.43 109.58 434.43L440.32 434.43 440.32 434.43C442.93 434.43 445.05 436.54 445.05 439.15L445.05 458.05 445.05 458.05C445.05 460.66 442.93 462.78 440.32 462.78L109.58 462.78 109.58 462.78C106.97 462.78 104.85 460.66 104.85 458.05z" />
    <g transform="matrix(1, 0, 0, 1, 113.43744, 439.41162)"><text font-family="Calibri" font-style="normal" font-weight="bold" font-stretch="normal" font-size="13.5pt" fill="#000000" x="121.01372" y="15.238889"><tspan x="121.01372" y="15.238889">Conclusion</tspan></text></g>
    <path fill="#FFFF66" d="M104.85 473.17C104.85 470.56 106.97 468.45 109.58 468.45L440.32 468.45 440.32 468.45C442.93 468.45 445.05 470.56 445.05 473.17L445.05 492.07 445.05 492.07C445.05 494.68 442.93 496.8 440.32 496.8L109.58 496.8 109.58 496.8C106.97 496.8 104.85 494.68 104.85 492.07z" />
    <path stroke-width="2" stroke="#385D8A" fill="none" d="M104.85 473.17C104.85 470.56 106.97 468.45 109.58 468.45L440.32 468.45 440.32 468.45C442.93 468.45 445.05 470.56 445.05 473.17L445.05 492.07 445.05 492.07C445.05 494.68 442.93 496.8 440.32 496.8L109.58 496.8 109.58 496.8C106.97 496.8 104.85 494.68 104.85 492.07z" />
    <g transform="matrix(1, 0, 0, 1, 113.43744, 473.43115)"><text font-family="Calibri" font-style="normal" font-weight="bold" font-stretch="normal" font-size="13.5pt" fill="#000000" x="124.28325" y="15.238889"><tspan x="124.28325" y="15.238889">Reference</tspan></text></g>
    <path fill="#FFFF66" d="M104.85 235.04C104.85 232.43 106.97 230.31 109.58 230.31L440.32 230.31 440.32 230.31C442.93 230.31 445.05 232.43 445.05 235.04L445.05 253.94 445.05 253.94C445.05 256.54 442.93 258.66 440.32 258.66L109.58 258.66 109.58 258.66C106.97 258.66 104.85 256.54 104.85 253.94z" />
    <path stroke-width="2" stroke="#385D8A" fill="none" d="M104.85 235.04C104.85 232.43 106.97 230.31 109.58 230.31L440.32 230.31 440.32 230.31C442.93 230.31 445.05 232.43 445.05 235.04L445.05 253.94 445.05 253.94C445.05 256.54 442.93 258.66 440.32 258.66L109.58 258.66 109.58 258.66C106.97 258.66 104.85 256.54 104.85 253.94z" />
    <g transform="matrix(1, 0, 0, 1, 113.43744, 235.29446)"><text font-family="Calibri" font-style="normal" font-weight="bold" font-stretch="normal" font-size="13.5pt" fill="#000000" x="112.446335" y="15.238889"><tspan x="112.446335" y="15.238889">Program files</tspan></text></g>
    <path fill="#FFFF66" d="M104.85 201.02C104.85 198.41 106.97 196.29 109.58 196.29L440.32 196.29 440.32 196.29C442.93 196.29 445.05 198.41 445.05 201.02L445.05 219.92 445.05 219.92C445.05 222.53 442.93 224.64 440.32 224.64L109.58 224.64 109.58 224.64C106.97 224.64 104.85 222.53 104.85 219.92z" />
    <path stroke-width="2" stroke="#385D8A" fill="none" d="M104.85 201.02C104.85 198.41 106.97 196.29 109.58 196.29L440.32 196.29 440.32 196.29C442.93 196.29 445.05 198.41 445.05 201.02L445.05 219.92 445.05 219.92C445.05 222.53 442.93 224.64 440.32 224.64L109.58 224.64 109.58 224.64C106.97 224.64 104.85 222.53 104.85 219.92z" />
    <g transform="matrix(1, 0, 0, 1, 113.43744, 201.27495)"><text font-family="Calibri" font-style="normal" font-weight="bold" font-stretch="normal" font-size="13.5pt" fill="#000000" x="64.35405" y="15.238889"><tspan x="64.35405" y="15.238889">Pro- Features of keylogger</tspan></text></g>
    <path fill="#FFFF66" d="M104.85 167C104.85 164.39 106.97 162.27 109.58 162.27L440.32 162.27 440.32 162.27C442.93 162.27 445.05 164.39 445.05 167L445.05 185.9 445.05 185.9C445.05 188.51 442.93 190.62 440.32 190.62L109.58 190.62 109.58 190.62C106.97 190.62 104.85 188.51 104.85 185.9z" />
    <path stroke-width="2" stroke="#385D8A" fill="none" d="M104.85 167C104.85 164.39 106.97 162.27 109.58 162.27L440.32 162.27 440.32 162.27C442.93 162.27 445.05 164.39 445.05 167L445.05 185.9 445.05 185.9C445.05 188.51 442.93 190.62 440.32 190.62L109.58 190.62 109.58 190.62C106.97 190.62 104.85 188.51 104.85 185.9z" />
    <g transform="matrix(1, 0, 0, 1, 113.43744, 167.25542)"><text font-family="Calibri" font-style="normal" font-weight="bold" font-stretch="normal" font-size="13.5pt" fill="#000000" x="81.86919" y="15.238889"><tspan x="81.86919" y="15.238889">Features of keylogger</tspan></text></g>
    <path fill="#FFFF66" d="M104.85 132.98C104.85 130.37 106.97 128.25 109.58 128.25L440.32 128.25 440.32 128.25C442.93 128.25 445.05 130.37 445.05 132.98L445.05 151.88 445.05 151.88C445.05 154.49 442.93 156.6 440.32 156.6L109.58 156.6 109.58 156.6C106.97 156.6 104.85 154.49 104.85 151.88z" />
    <path stroke-width="2" stroke="#385D8A" fill="none" d="M104.85 132.98C104.85 130.37 106.97 128.25 109.58 128.25L440.32 128.25 440.32 128.25C442.93 128.25 445.05 130.37 445.05 132.98L445.05 151.88 445.05 151.88C445.05 154.49 442.93 156.6 440.32 156.6L109.58 156.6 109.58 156.6C106.97 156.6 104.85 154.49 104.85 151.88z" />
    <g transform="matrix(1, 0, 0, 1, 113.43744, 133.23589)"><text font-family="Calibri" font-style="normal" font-weight="bold" font-stretch="normal" font-size="13.5pt" fill="#000000" x="70.76567" y="15.238889"><tspan x="70.76567" y="15.238889">Importance of keylogger</tspan></text></g>
    <path fill="#FFFF66" d="M104.85 98.96C104.85 96.35 106.97 94.23 109.58 94.23L440.32 94.23 440.32 94.23C442.93 94.23 445.05 96.35 445.05 98.96L445.05 117.86 445.05 117.86C445.05 120.47 442.93 122.58 440.32 122.58L109.58 122.58 109.58 122.58C106.97 122.58 104.85 120.47 104.85 117.86z" />
    <path stroke-width="2" stroke="#385D8A" fill="none" d="M104.85 98.96C104.85 96.35 106.97 94.23 109.58 94.23L440.32 94.23 440.32 94.23C442.93 94.23 445.05 96.35 445.05 98.96L445.05 117.86 445.05 117.86C445.05 120.47 442.93 122.58 440.32 122.58L109.58 122.58 109.58 122.58C106.97 122.58 104.85 120.47 104.85 117.86z" />
    <g transform="matrix(1, 0, 0, 1, 113.43744, 99.21635)"><text font-family="Calibri" font-style="normal" font-weight="bold" font-stretch="normal" font-size="13.5pt" fill="#000000" x="85.4146" y="15.238889"><tspan x="85.4146" y="15.238889">What is keylogging ?</tspan></text></g>
  </g>
</svg>