<?xml version="1.0" encoding="utf-8" standalone="yes"?>
<!DOCTYPE svg PUBLIC "-//W3C//DTD SVG 1.1//EN" "http://www.w3.org/Graphics/SVG/1.1/DTD/svg11.dtd">
<svg version="1.1" xmlns="http://www.w3.org/2000/svg" xmlns:xlink="http://www.w3.org/1999/xlink" width="10in" height="7.5in" class="slides-canvas" viewBox="0 0 720 540">
  <g text-rendering="geometricPrecision" transform="scale(1, 1)">
    <rect x="0" y="0" width="720" height="540" fill="#CCC1DA" fill-opacity="0.74" />
    <path fill="#604A7B" d="M275.62 0L399.38 0 399.38 540 275.62 540z" />
    <path stroke-width="2" stroke="#000000" fill="none" d="M275.62 0L399.38 0 399.38 540 275.62 540z" />
    <path fill="#EEECE1" d="M258.75 255.94L343.12 180 427.5 255.94 343.12 331.88z" />
    <path stroke-width="2" stroke="#000000" fill="none" d="M258.75 255.94L343.12 180 427.5 255.94 343.12 331.88z" />
    <g transform="matrix(1, 0, 0, 1, 308.13712, 221.56839)"><text font-family="Calibri" font-style="normal" font-weight="bold" font-stretch="normal" font-size="15pt" fill="#000000" x="9.050297" y="53.089024"><tspan x="2.6127968" y="29.089022">Module</tspan><tspan x="9.050297" y="53.089024">Used :</tspan></text></g>
    <path stroke-width="2" stroke="#000000" fill="none" d="M241.87 253.12L343.12 151.87 444.38 253.12 343.12 354.38z" />
    <path fill="#8EB4E3" d="M16.87 28.12L196.87 28.12 196.87 166.26 16.87 166.26z" />
    <g transform="matrix(1, 0, 0, 1, 24.072594, 31.723305)"><text font-family="Calibri" font-style="normal" font-weight="normal" font-stretch="normal" font-size="13.5pt" fill="#000000" x="0" y="124.84799"><tspan x="0" y="16.848" xml:space="preserve"> 1 -SMTPlib</tspan><tspan xml:space="preserve" x="82.25" y="16.848">  </tspan><tspan x="90.5" y="16.848" xml:space="preserve">:</tspan><tspan x="0" y="38.447998">It is a client session</tspan><tspan xml:space="preserve" x="140.08301" y="38.447998"> </tspan><tspan x="0" y="60.047997">object that can be</tspan><tspan xml:space="preserve" x="132.3086" y="60.047997"> </tspan><tspan x="0" y="81.647995">used to send mail to</tspan><tspan xml:space="preserve" x="148.39844" y="81.647995"> </tspan><tspan x="0" y="103.24799">any internet machine</tspan><tspan xml:space="preserve" x="155.83398" y="103.24799"> </tspan><tspan x="0" y="124.84799">with SMTP domain</tspan></text></g>
    <path fill="#FFFF00" d="M455.63 39.37L613.13 39.37 613.13 155.7 455.63 155.7z" />
    <g transform="matrix(1, 0, 0, 1, 462.82568, 42.97338)"><text font-family="Calibri" font-style="normal" font-weight="normal" font-stretch="normal" font-size="13.5pt" fill="#000000" x="0" y="103.24799"><tspan x="0" y="16.848">2 -Pynput :</tspan><tspan x="0" y="38.447998">This library allow</tspan><tspan xml:space="preserve" x="123.52344" y="38.447998"> </tspan><tspan x="0" y="60.047997">you to control and</tspan><tspan xml:space="preserve" x="134.13184" y="60.047997"> </tspan><tspan x="0" y="81.647995">monitor input</tspan><tspan xml:space="preserve" x="101.82422" y="81.647995"> </tspan><tspan x="0" y="103.24799">devices .</tspan></text></g>
    <path fill="#E6B9B8" d="M16.87 354.38L180 354.38 180 470.7 16.87 470.7z" />
    <g transform="matrix(1, 0, 0, 1, 24.072594, 357.97556)"><text font-family="Calibri" font-style="normal" font-weight="normal" font-stretch="normal" font-size="13.5pt" fill="#000000" x="0" y="103.24799"><tspan x="0" y="16.848">3 -Keylogger :</tspan><tspan xml:space="preserve" x="99.703125" y="16.848"> </tspan><tspan xml:space="preserve" x="0" y="38.447998"> </tspan><tspan x="4.125" y="38.447998">Surveillance</tspan><tspan xml:space="preserve" x="92.36621" y="38.447998"> </tspan><tspan x="0" y="60.047997">technology used to</tspan><tspan xml:space="preserve" x="139.75586" y="60.047997"> </tspan><tspan x="0" y="81.647995">monitor or record</tspan><tspan xml:space="preserve" x="130.5664" y="81.647995"> </tspan><tspan x="0" y="103.24799">each krey stroke</tspan></text></g>
    <g transform="matrix(-1, 0, 0, 1, 1128.2983, 0)">
      <path fill="#92D050" d="M470.17 360L658.13 360 658.13 498.14 470.17 498.14z" />
    </g>
    <g transform="matrix(1, 0, 0, 1, 477.37134, 363.60065)"><text font-family="Calibri" font-style="normal" font-weight="normal" font-stretch="normal" font-size="13.5pt" fill="#000000" x="0" y="124.84799"><tspan x="0" y="16.848" xml:space="preserve">4 -Threading</tspan><tspan xml:space="preserve" x="92.262695" y="16.848">  </tspan><tspan x="100.512695" y="16.848" xml:space="preserve">:</tspan><tspan x="0" y="38.447998" xml:space="preserve">It</tspan><tspan xml:space="preserve" x="10.5" y="38.447998">  </tspan><tspan x="18.75" y="38.447998" xml:space="preserve">used to run certain</tspan><tspan xml:space="preserve" x="157.60449" y="38.447998"> </tspan><tspan x="0" y="60.047997">code / processing in</tspan><tspan xml:space="preserve" x="146.18555" y="60.047997"> </tspan><tspan x="0" y="81.647995">background and</tspan><tspan xml:space="preserve" x="118.08496" y="81.647995"> </tspan><tspan x="0" y="103.24799">without constent of</tspan><tspan xml:space="preserve" x="144.16309" y="103.24799"> </tspan><tspan x="0" y="124.84799">user</tspan></text></g>
  </g>
</svg>